<svg width="260" height="112" viewBox="0 0 260 112" fill="none" xmlns="http://www.w3.org/2000/svg">
  <path
    d="M30.198 86.9259C25.5677 86.9259 21.263 86.2748 17.2839 84.9725C13.3771 83.5979 9.97677 81.6807 7.08285 79.2209C4.18894 76.761 1.98233 73.9033 0.463026 70.6477C-0.115757 69.4901 -0.15193 68.441 0.354505 67.5005C0.933287 66.4876 1.87381 65.8003 3.17607 65.4386C4.18894 65.1492 5.16563 65.2577 6.10616 65.7642C7.11903 66.2706 7.87868 67.0303 8.38511 68.0431C9.47033 70.1412 11.062 72.0223 13.1601 73.6863C15.2582 75.3503 17.7542 76.6525 20.6481 77.593C23.542 78.4612 26.7253 78.8953 30.198 78.8953C34.0324 78.8953 37.4328 78.2803 40.399 77.0504C43.3653 75.7482 45.6804 73.9033 47.3444 71.5158C49.0808 69.056 49.9489 66.0897 49.9489 62.617C49.9489 58.2038 48.3211 54.4056 45.0655 51.2223C41.8098 48.039 36.7093 46.0132 29.7639 45.145C21.2992 44.1322 14.6794 41.5276 9.90442 37.3315C5.12946 33.063 2.74198 27.8539 2.74198 21.7043C2.74198 17.2911 3.89955 13.4567 6.21468 10.201C8.60216 6.94539 11.8578 4.44939 15.9816 2.71304C20.1055 0.904347 24.8442 0 30.198 0C34.1771 0 37.7945 0.651129 41.0502 1.95339C44.3058 3.1833 47.1274 4.8473 49.5149 6.94539C51.9747 8.97112 53.9642 11.2139 55.4835 13.6737C56.207 14.8313 56.4241 15.9527 56.1347 17.0379C55.9176 18.1231 55.3027 18.9551 54.2898 19.5339C53.2046 20.0403 52.0832 20.1127 50.9256 19.751C49.8404 19.3892 49.0084 18.7019 48.4296 17.689C47.3444 16.025 45.9698 14.4696 44.3058 13.0226C42.7142 11.5033 40.7608 10.3096 38.4456 9.44139C36.1305 8.57321 33.3451 8.10296 30.0895 8.03061C24.374 8.03061 19.7799 9.26052 16.3072 11.7203C12.8345 14.1078 11.0982 17.6167 11.0982 22.247C11.0982 24.7068 11.7493 26.9857 13.0515 29.0838C14.3538 31.1096 16.4881 32.8821 19.4543 34.4014C22.4929 35.8483 26.5444 36.9336 31.6088 37.657C40.6522 38.9593 47.3444 41.7447 51.6853 46.0132C56.0985 50.2094 58.3051 55.7078 58.3051 62.5085C58.3051 66.4153 57.5816 69.888 56.1347 72.9266C54.7601 75.9652 52.7705 78.5336 50.166 80.6317C47.6338 82.6574 44.6314 84.2129 41.1587 85.2981C37.7583 86.3833 34.1048 86.9259 30.198 86.9259Z"
    fill="black" />
  <path
    d="M107.26 86.3833C101.4 86.3833 96.1911 85.1172 91.6332 82.585C87.1476 79.9805 83.6025 76.3993 80.998 71.8414C78.4659 67.2835 77.1998 62.0744 77.1998 56.2143C77.1998 50.2817 78.3935 45.0727 80.781 40.5871C83.2408 36.0292 86.605 32.448 90.8735 29.8435C95.142 27.239 100.062 25.9367 105.632 25.9367C111.131 25.9367 115.906 27.2028 119.957 29.735C124.081 32.1948 127.264 35.6313 129.507 40.0445C131.75 44.4577 132.871 49.4859 132.871 55.129C132.871 56.2866 132.51 57.2271 131.786 57.9506C131.063 58.6017 130.122 58.9273 128.965 58.9273H125.166L125.037 51.9819H129.833L125.166 58.9273C125.239 54.7311 124.479 47.3878 122.887 44.0598C121.296 40.7318 119.017 38.1273 116.051 36.2463C113.157 34.3652 109.684 33.4247 105.632 33.4247C101.509 33.4247 97.8912 34.4014 94.7803 36.3548C91.6693 38.3082 89.2457 41.0212 87.5093 44.4939C85.8453 47.8943 85.0133 51.801 85.0133 56.2143C85.0133 60.6275 85.9538 64.5343 87.8349 67.9346C89.7883 71.335 92.429 74.0118 95.757 75.9652C99.085 77.9186 102.919 78.8953 107.26 78.8953C109.865 78.8953 112.469 78.4612 115.074 77.593C117.751 76.6525 119.885 75.495 121.477 74.1203C122.272 73.4692 123.177 73.1437 124.19 73.1437C125.203 73.0713 126.071 73.3245 126.794 73.9033C127.735 74.7715 128.205 75.712 128.205 76.7249C128.277 77.7377 127.879 78.6059 127.011 79.3294C124.624 81.3551 121.585 83.0553 117.895 84.4299C114.206 85.7322 110.661 86.3833 107.26 86.3833Z"
    fill="black" />
  <path
    d="M165.239 85.8407C162.345 85.8407 159.74 85.0449 157.425 83.4532C155.183 81.8616 153.41 79.655 152.108 76.8334C150.878 74.0118 150.263 70.7562 150.263 67.0664V5.20904C150.263 3.97913 150.625 3.00243 151.348 2.27895C152.144 1.48313 153.157 1.08522 154.387 1.08522C155.617 1.08522 156.593 1.48313 157.317 2.27895C158.113 3.00243 158.511 3.97913 158.511 5.20904V67.0664C158.511 70.1774 159.125 72.7096 160.355 74.6629C161.658 76.6163 163.285 77.593 165.239 77.593H167.952C169.037 77.593 169.905 77.991 170.556 78.7868C171.208 79.5103 171.533 80.487 171.533 81.7169C171.533 82.9468 171.063 83.9596 170.122 84.7555C169.254 85.479 168.097 85.8407 166.65 85.8407H165.239Z"
    fill="black" />
  <path
    d="M192.719 111.235C191.417 111.235 190.368 110.837 189.572 110.041C188.849 109.318 188.487 108.305 188.487 107.002V55.7802C188.559 50.137 189.898 45.0727 192.502 40.5871C195.179 36.0292 198.76 32.448 203.246 29.8435C207.804 27.239 212.904 25.9367 218.548 25.9367C224.335 25.9367 229.508 27.2751 234.066 29.952C238.624 32.5565 242.205 36.1377 244.81 40.6957C247.487 45.2536 248.825 50.4264 248.825 56.2143C248.825 61.9297 247.523 67.0664 244.918 71.6243C242.386 76.1823 238.914 79.7997 234.5 82.4765C230.087 85.081 225.095 86.3833 219.524 86.3833C214.677 86.3833 210.264 85.3704 206.285 83.3447C202.378 81.2466 199.231 78.4974 196.843 75.097V107.002C196.843 108.305 196.445 109.318 195.65 110.041C194.926 110.837 193.949 111.235 192.719 111.235ZM218.548 78.7868C222.744 78.7868 226.506 77.8101 229.834 75.8567C233.162 73.9033 235.766 71.2264 237.647 67.8261C239.601 64.3534 240.578 60.4828 240.578 56.2143C240.578 51.8734 239.601 48.0028 237.647 44.6024C235.766 41.2021 233.162 38.5252 229.834 36.5718C226.506 34.5461 222.744 33.5332 218.548 33.5332C214.424 33.5332 210.698 34.5461 207.37 36.5718C204.042 38.5252 201.437 41.2021 199.556 44.6024C197.675 48.0028 196.735 51.8734 196.735 56.2143C196.735 60.4828 197.675 64.3534 199.556 67.8261C201.437 71.2264 204.042 73.9033 207.37 75.8567C210.698 77.8101 214.424 78.7868 218.548 78.7868Z"
    fill="black" />
  <path fill-rule="evenodd" clip-rule="evenodd"
    d="M102.267 49.5939L99.1735 63.0009C98.7257 64.9412 96.0321 65.119 95.333 63.2547L93.1608 57.4623L92.5393 58.2081C92.1574 58.6664 91.5917 58.9313 90.9952 58.9313H82.2173V54.9313H90.0631L92.2785 52.2728C93.2656 51.0884 95.1634 51.4104 95.7047 52.8538L96.7604 55.669L100.346 40.1333C100.827 38.0471 103.802 38.0595 104.266 40.1492L109.285 62.7339L112.236 51.9152C112.759 49.9966 115.453 49.9217 116.082 51.8084L117.655 56.5294L118.196 55.773C118.573 55.2448 119.182 54.9313 119.831 54.9313H128.614V58.9313H120.855L118.639 62.0343C117.684 63.3712 115.616 63.0599 115.096 61.5016L114.365 59.3086L111.027 71.549C110.475 73.5721 107.581 73.5049 107.126 71.4561L102.267 49.5939Z"
    fill="black" />
  <path
    d="M248.696 79.1977C248.696 82.0716 250.968 83.6031 252.631 84.9739C253.218 85.4576 253.783 85.913 254.348 85.913C254.913 85.913 255.478 85.4576 256.065 84.9739C257.728 83.6031 260 82.0716 260 79.1977C260 76.3238 256.891 74.2856 254.348 77.0486C251.805 74.2856 248.696 76.3238 248.696 79.1977Z"
    fill="#C90000" />
</svg>