<svg width="261" height="114" viewBox="0 0 261 114" fill="none" xmlns="http://www.w3.org/2000/svg">
  <path fill-rule="evenodd" clip-rule="evenodd"
    d="M103.267 51.0987L100.174 64.5056C99.7257 66.446 97.0321 66.6237 96.333 64.7594L94.1608 58.967L93.5393 59.7128C93.1574 60.1711 92.5917 60.436 91.9952 60.436H83.2173V56.436H91.0631L93.2785 53.7776C94.2656 52.5932 96.1634 52.9152 96.7047 54.3586L97.7604 57.1738L101.346 41.638C101.827 39.5518 104.802 39.5642 105.266 41.654L110.285 64.2387L113.236 53.4199C113.759 51.5013 116.453 51.4265 117.082 53.3132L118.655 58.0341L119.196 57.2778C119.573 56.7495 120.182 56.436 120.831 56.436H129.614V60.436H121.855L119.639 63.5391C118.684 64.876 116.616 64.5646 116.096 63.0064L115.365 60.8133L112.027 73.0537C111.475 75.0769 108.581 75.0096 108.126 72.9609L103.267 51.0987Z"
    fill="white" stroke="black" stroke-linecap="square" />
  <mask id="path-2-outside-1_10_5" maskUnits="userSpaceOnUse" x="-1" y="0" width="252" height="114"
    fill="black">
    <rect fill="white" x="-1" width="252" height="114" />
    <path
      d="M31.198 87.9259C26.5677 87.9259 22.263 87.2748 18.2839 85.9725C14.3771 84.5979 10.9768 82.6807 8.08285 80.2209C5.18894 77.761 2.98233 74.9033 1.46303 71.6477C0.884243 70.4901 0.84807 69.441 1.3545 68.5005C1.93329 67.4876 2.87381 66.8003 4.17607 66.4386C5.18894 66.1492 6.16563 66.2577 7.10616 66.7642C8.11903 67.2706 8.87868 68.0303 9.38511 69.0431C10.4703 71.1412 12.062 73.0223 14.1601 74.6863C16.2582 76.3503 18.7542 77.6525 21.6481 78.593C24.542 79.4612 27.7253 79.8953 31.198 79.8953C35.0324 79.8953 38.4328 79.2803 41.399 78.0504C44.3653 76.7482 46.6804 74.9033 48.3444 72.5158C50.0808 70.056 50.9489 67.0897 50.9489 63.617C50.9489 59.2038 49.3211 55.4056 46.0655 52.2223C42.8098 49.039 37.7093 47.0132 30.7639 46.145C22.2992 45.1322 15.6794 42.5276 10.9044 38.3315C6.12946 34.063 3.74198 28.8539 3.74198 22.7043C3.74198 18.2911 4.89955 14.4567 7.21468 11.201C9.60216 7.94539 12.8578 5.44939 16.9816 3.71304C21.1055 1.90435 25.8442 1 31.198 1C35.1771 1 38.7945 1.65113 42.0502 2.95339C45.3058 4.1833 48.1274 5.8473 50.5149 7.94539C52.9747 9.97112 54.9642 12.2139 56.4835 14.6737C57.207 15.8313 57.4241 16.9527 57.1347 18.0379C56.9176 19.1231 56.3027 19.9551 55.2898 20.5339C54.2046 21.0403 53.0832 21.1127 51.9256 20.751C50.8404 20.3892 50.0084 19.7019 49.4296 18.689C48.3444 17.025 46.9698 15.4696 45.3058 14.0226C43.7142 12.5033 41.7608 11.3096 39.4456 10.4414C37.1305 9.57321 34.3451 9.10296 31.0895 9.03061C25.374 9.03061 20.7799 10.2605 17.3072 12.7203C13.8345 15.1078 12.0982 18.6167 12.0982 23.247C12.0982 25.7068 12.7493 27.9857 14.0515 30.0838C15.3538 32.1096 17.4881 33.8821 20.4543 35.4014C23.4929 36.8483 27.5444 37.9336 32.6088 38.657C41.6522 39.9593 48.3444 42.7447 52.6853 47.0132C57.0985 51.2094 59.3051 56.7078 59.3051 63.5085C59.3051 67.4153 58.5816 70.888 57.1347 73.9266C55.7601 76.9652 53.7705 79.5336 51.166 81.6317C48.6338 83.6574 45.6314 85.2129 42.1587 86.2981C38.7583 87.3833 35.1048 87.9259 31.198 87.9259Z" />
    <path
      d="M108.26 87.3833C102.4 87.3833 97.1911 86.1172 92.6332 83.585C88.1476 80.9805 84.6025 77.3993 81.998 72.8414C79.4658 68.2835 78.1998 63.0744 78.1998 57.2143C78.1998 51.2817 79.3935 46.0727 81.781 41.5871C84.2408 37.0292 87.605 33.448 91.8735 30.8435C96.142 28.239 101.062 26.9367 106.632 26.9367C112.131 26.9367 116.906 28.2028 120.957 30.735C125.081 33.1948 128.264 36.6313 130.507 41.0445C132.75 45.4577 133.871 50.4859 133.871 56.129C133.871 57.2866 133.51 58.2271 132.786 58.9506C132.063 59.6017 131.122 59.9273 129.965 59.9273H126.166L126.037 52.9819H130.833L126.166 59.9273C126.239 55.7311 125.479 48.3878 123.887 45.0598C122.296 41.7318 120.017 39.1273 117.051 37.2463C114.157 35.3652 110.684 34.4247 106.632 34.4247C102.509 34.4247 98.8912 35.4014 95.7803 37.3548C92.6693 39.3082 90.2457 42.0212 88.5093 45.4939C86.8453 48.8943 86.0133 52.801 86.0133 57.2143C86.0133 61.6275 86.9539 65.5343 88.8349 68.9346C90.7883 72.335 93.429 75.0118 96.757 76.9652C100.085 78.9186 103.919 79.8953 108.26 79.8953C110.865 79.8953 113.469 79.4612 116.074 78.593C118.751 77.6525 120.885 76.495 122.477 75.1203C123.272 74.4692 124.177 74.1437 125.19 74.1437C126.203 74.0713 127.071 74.3245 127.794 74.9033C128.735 75.7715 129.205 76.712 129.205 77.7249C129.277 78.7377 128.879 79.6059 128.011 80.3294C125.624 82.3551 122.585 84.0553 118.895 85.4299C115.206 86.7322 111.661 87.3833 108.26 87.3833Z" />
    <path
      d="M166.239 86.8407C163.345 86.8407 160.74 86.0449 158.425 84.4532C156.183 82.8616 154.41 80.655 153.108 77.8334C151.878 75.0118 151.263 71.7562 151.263 68.0664V6.20904C151.263 4.97913 151.625 4.00243 152.348 3.27895C153.144 2.48313 154.157 2.08522 155.387 2.08522C156.617 2.08522 157.593 2.48313 158.317 3.27895C159.113 4.00243 159.511 4.97913 159.511 6.20904V68.0664C159.511 71.1774 160.125 73.7096 161.355 75.663C162.658 77.6163 164.285 78.593 166.239 78.593H168.952C170.037 78.593 170.905 78.991 171.556 79.7868C172.208 80.5103 172.533 81.487 172.533 82.7169C172.533 83.9468 172.063 84.9596 171.122 85.7555C170.254 86.479 169.097 86.8407 167.65 86.8407H166.239Z" />
    <path
      d="M193.719 112.235C192.417 112.235 191.368 111.837 190.572 111.041C189.849 110.318 189.487 109.305 189.487 108.002V56.7802C189.559 51.137 190.898 46.0727 193.502 41.5871C196.179 37.0292 199.761 33.448 204.246 30.8435C208.804 28.239 213.904 26.9367 219.548 26.9367C225.335 26.9367 230.508 28.2751 235.066 30.952C239.624 33.5565 243.205 37.1377 245.81 41.6957C248.487 46.2536 249.825 51.4264 249.825 57.2143C249.825 62.9297 248.523 68.0664 245.918 72.6243C243.386 77.1823 239.914 80.7996 235.5 83.4765C231.087 86.081 226.095 87.3833 220.524 87.3833C215.677 87.3833 211.264 86.3704 207.285 84.3447C203.378 82.2466 200.231 79.4974 197.843 76.097V108.002C197.843 109.305 197.445 110.318 196.65 111.041C195.926 111.837 194.949 112.235 193.719 112.235ZM219.548 79.7868C223.744 79.7868 227.506 78.8101 230.834 76.8567C234.162 74.9033 236.766 72.2264 238.647 68.8261C240.601 65.3534 241.578 61.4828 241.578 57.2143C241.578 52.8734 240.601 49.0028 238.647 45.6024C236.766 42.2021 234.162 39.5252 230.834 37.5718C227.506 35.5461 223.744 34.5332 219.548 34.5332C215.424 34.5332 211.698 35.5461 208.37 37.5718C205.042 39.5252 202.437 42.2021 200.556 45.6024C198.675 49.0028 197.735 52.8734 197.735 57.2143C197.735 61.4828 198.675 65.3534 200.556 68.8261C202.437 72.2264 205.042 74.9033 208.37 76.8567C211.698 78.8101 215.424 79.7868 219.548 79.7868Z" />
  </mask>
  <path
    d="M31.198 87.9259C26.5677 87.9259 22.263 87.2748 18.2839 85.9725C14.3771 84.5979 10.9768 82.6807 8.08285 80.2209C5.18894 77.761 2.98233 74.9033 1.46303 71.6477C0.884243 70.4901 0.84807 69.441 1.3545 68.5005C1.93329 67.4876 2.87381 66.8003 4.17607 66.4386C5.18894 66.1492 6.16563 66.2577 7.10616 66.7642C8.11903 67.2706 8.87868 68.0303 9.38511 69.0431C10.4703 71.1412 12.062 73.0223 14.1601 74.6863C16.2582 76.3503 18.7542 77.6525 21.6481 78.593C24.542 79.4612 27.7253 79.8953 31.198 79.8953C35.0324 79.8953 38.4328 79.2803 41.399 78.0504C44.3653 76.7482 46.6804 74.9033 48.3444 72.5158C50.0808 70.056 50.9489 67.0897 50.9489 63.617C50.9489 59.2038 49.3211 55.4056 46.0655 52.2223C42.8098 49.039 37.7093 47.0132 30.7639 46.145C22.2992 45.1322 15.6794 42.5276 10.9044 38.3315C6.12946 34.063 3.74198 28.8539 3.74198 22.7043C3.74198 18.2911 4.89955 14.4567 7.21468 11.201C9.60216 7.94539 12.8578 5.44939 16.9816 3.71304C21.1055 1.90435 25.8442 1 31.198 1C35.1771 1 38.7945 1.65113 42.0502 2.95339C45.3058 4.1833 48.1274 5.8473 50.5149 7.94539C52.9747 9.97112 54.9642 12.2139 56.4835 14.6737C57.207 15.8313 57.4241 16.9527 57.1347 18.0379C56.9176 19.1231 56.3027 19.9551 55.2898 20.5339C54.2046 21.0403 53.0832 21.1127 51.9256 20.751C50.8404 20.3892 50.0084 19.7019 49.4296 18.689C48.3444 17.025 46.9698 15.4696 45.3058 14.0226C43.7142 12.5033 41.7608 11.3096 39.4456 10.4414C37.1305 9.57321 34.3451 9.10296 31.0895 9.03061C25.374 9.03061 20.7799 10.2605 17.3072 12.7203C13.8345 15.1078 12.0982 18.6167 12.0982 23.247C12.0982 25.7068 12.7493 27.9857 14.0515 30.0838C15.3538 32.1096 17.4881 33.8821 20.4543 35.4014C23.4929 36.8483 27.5444 37.9336 32.6088 38.657C41.6522 39.9593 48.3444 42.7447 52.6853 47.0132C57.0985 51.2094 59.3051 56.7078 59.3051 63.5085C59.3051 67.4153 58.5816 70.888 57.1347 73.9266C55.7601 76.9652 53.7705 79.5336 51.166 81.6317C48.6338 83.6574 45.6314 85.2129 42.1587 86.2981C38.7583 87.3833 35.1048 87.9259 31.198 87.9259Z"
    fill="white" />
  <path
    d="M108.26 87.3833C102.4 87.3833 97.1911 86.1172 92.6332 83.585C88.1476 80.9805 84.6025 77.3993 81.998 72.8414C79.4658 68.2835 78.1998 63.0744 78.1998 57.2143C78.1998 51.2817 79.3935 46.0727 81.781 41.5871C84.2408 37.0292 87.605 33.448 91.8735 30.8435C96.142 28.239 101.062 26.9367 106.632 26.9367C112.131 26.9367 116.906 28.2028 120.957 30.735C125.081 33.1948 128.264 36.6313 130.507 41.0445C132.75 45.4577 133.871 50.4859 133.871 56.129C133.871 57.2866 133.51 58.2271 132.786 58.9506C132.063 59.6017 131.122 59.9273 129.965 59.9273H126.166L126.037 52.9819H130.833L126.166 59.9273C126.239 55.7311 125.479 48.3878 123.887 45.0598C122.296 41.7318 120.017 39.1273 117.051 37.2463C114.157 35.3652 110.684 34.4247 106.632 34.4247C102.509 34.4247 98.8912 35.4014 95.7803 37.3548C92.6693 39.3082 90.2457 42.0212 88.5093 45.4939C86.8453 48.8943 86.0133 52.801 86.0133 57.2143C86.0133 61.6275 86.9539 65.5343 88.8349 68.9346C90.7883 72.335 93.429 75.0118 96.757 76.9652C100.085 78.9186 103.919 79.8953 108.26 79.8953C110.865 79.8953 113.469 79.4612 116.074 78.593C118.751 77.6525 120.885 76.495 122.477 75.1203C123.272 74.4692 124.177 74.1437 125.19 74.1437C126.203 74.0713 127.071 74.3245 127.794 74.9033C128.735 75.7715 129.205 76.712 129.205 77.7249C129.277 78.7377 128.879 79.6059 128.011 80.3294C125.624 82.3551 122.585 84.0553 118.895 85.4299C115.206 86.7322 111.661 87.3833 108.26 87.3833Z"
    fill="white" />
  <path
    d="M166.239 86.8407C163.345 86.8407 160.74 86.0449 158.425 84.4532C156.183 82.8616 154.41 80.655 153.108 77.8334C151.878 75.0118 151.263 71.7562 151.263 68.0664V6.20904C151.263 4.97913 151.625 4.00243 152.348 3.27895C153.144 2.48313 154.157 2.08522 155.387 2.08522C156.617 2.08522 157.593 2.48313 158.317 3.27895C159.113 4.00243 159.511 4.97913 159.511 6.20904V68.0664C159.511 71.1774 160.125 73.7096 161.355 75.663C162.658 77.6163 164.285 78.593 166.239 78.593H168.952C170.037 78.593 170.905 78.991 171.556 79.7868C172.208 80.5103 172.533 81.487 172.533 82.7169C172.533 83.9468 172.063 84.9596 171.122 85.7555C170.254 86.479 169.097 86.8407 167.65 86.8407H166.239Z"
    fill="white" />
  <path
    d="M193.719 112.235C192.417 112.235 191.368 111.837 190.572 111.041C189.849 110.318 189.487 109.305 189.487 108.002V56.7802C189.559 51.137 190.898 46.0727 193.502 41.5871C196.179 37.0292 199.761 33.448 204.246 30.8435C208.804 28.239 213.904 26.9367 219.548 26.9367C225.335 26.9367 230.508 28.2751 235.066 30.952C239.624 33.5565 243.205 37.1377 245.81 41.6957C248.487 46.2536 249.825 51.4264 249.825 57.2143C249.825 62.9297 248.523 68.0664 245.918 72.6243C243.386 77.1823 239.914 80.7996 235.5 83.4765C231.087 86.081 226.095 87.3833 220.524 87.3833C215.677 87.3833 211.264 86.3704 207.285 84.3447C203.378 82.2466 200.231 79.4974 197.843 76.097V108.002C197.843 109.305 197.445 110.318 196.65 111.041C195.926 111.837 194.949 112.235 193.719 112.235ZM219.548 79.7868C223.744 79.7868 227.506 78.8101 230.834 76.8567C234.162 74.9033 236.766 72.2264 238.647 68.8261C240.601 65.3534 241.578 61.4828 241.578 57.2143C241.578 52.8734 240.601 49.0028 238.647 45.6024C236.766 42.2021 234.162 39.5252 230.834 37.5718C227.506 35.5461 223.744 34.5332 219.548 34.5332C215.424 34.5332 211.698 35.5461 208.37 37.5718C205.042 39.5252 202.437 42.2021 200.556 45.6024C198.675 49.0028 197.735 52.8734 197.735 57.2143C197.735 61.4828 198.675 65.3534 200.556 68.8261C202.437 72.2264 205.042 74.9033 208.37 76.8567C211.698 78.8101 215.424 79.7868 219.548 79.7868Z"
    fill="white" />
  <path
    d="M18.2839 85.9725L17.952 86.9158L17.9624 86.9195L17.9729 86.9229L18.2839 85.9725ZM8.08285 80.2209L7.4352 80.9828L7.4352 80.9828L8.08285 80.2209ZM1.46303 71.6477L2.36921 71.2248L2.3635 71.2125L2.35745 71.2004L1.46303 71.6477ZM1.3545 68.5005L0.486262 68.0044L0.480009 68.0153L0.474033 68.0264L1.3545 68.5005ZM4.17607 66.4386L4.44372 67.4022L4.45079 67.4001L4.17607 66.4386ZM7.10616 66.7642L6.63206 67.6446L6.64539 67.6518L6.65894 67.6586L7.10616 66.7642ZM9.38511 69.0431L8.4906 69.4904L8.4969 69.5026L9.38511 69.0431ZM21.6481 78.593L21.339 79.5441L21.3498 79.5476L21.3607 79.5509L21.6481 78.593ZM41.399 78.0504L41.782 78.9742L41.7916 78.9702L41.801 78.9661L41.399 78.0504ZM48.3444 72.5158L47.5274 71.9391L47.524 71.944L48.3444 72.5158ZM46.0655 52.2223L46.7646 51.5073L46.7646 51.5073L46.0655 52.2223ZM30.7639 46.145L30.8879 45.1527L30.8827 45.1521L30.7639 46.145ZM10.9044 38.3315L10.2379 39.077L10.2443 39.0826L10.9044 38.3315ZM7.21468 11.201L6.40827 10.6097L6.40395 10.6156L6.39972 10.6215L7.21468 11.201ZM16.9816 3.71304L17.3697 4.63468L17.3765 4.6318L17.3833 4.62883L16.9816 3.71304ZM42.0502 2.95339L41.6788 3.88186L41.6877 3.88545L41.6968 3.88886L42.0502 2.95339ZM50.5149 7.94539L49.8547 8.69655L49.8668 8.70713L49.8791 8.71732L50.5149 7.94539ZM56.4835 14.6737L55.6327 15.1992L55.6355 15.2037L56.4835 14.6737ZM57.1347 18.0379L56.1684 17.7803L56.1603 17.8108L56.1541 17.8418L57.1347 18.0379ZM55.2898 20.5339L55.7127 21.4401L55.7501 21.4226L55.786 21.4022L55.2898 20.5339ZM51.9256 20.751L51.6094 21.6996L51.6184 21.7026L51.6274 21.7054L51.9256 20.751ZM49.4296 18.689L50.2979 18.1929L50.2833 18.1674L50.2672 18.1428L49.4296 18.689ZM45.3058 14.0226L44.6153 14.746L44.6321 14.762L44.6496 14.7772L45.3058 14.0226ZM39.4456 10.4414L39.7968 9.50506L39.7968 9.50506L39.4456 10.4414ZM31.0895 9.03061L31.1117 8.03086L31.1006 8.03061H31.0895V9.03061ZM17.3072 12.7203L17.8738 13.5445L17.8852 13.5364L17.3072 12.7203ZM14.0515 30.0838L13.2019 30.6112L13.2061 30.6179L13.2104 30.6246L14.0515 30.0838ZM20.4543 35.4014L19.9985 36.2914L20.0113 36.298L20.0244 36.3042L20.4543 35.4014ZM32.6088 38.657L32.7513 37.6672L32.7502 37.6671L32.6088 38.657ZM52.6853 47.0132L51.9841 47.7262L51.9901 47.7321L51.9962 47.7379L52.6853 47.0132ZM57.1347 73.9266L56.2318 73.4967L56.2276 73.5055L56.2236 73.5144L57.1347 73.9266ZM51.166 81.6317L51.7907 82.4125L51.7933 82.4104L51.166 81.6317ZM42.1587 86.2981L41.8604 85.3436L41.8546 85.3454L42.1587 86.2981ZM92.6332 83.585L92.131 84.4498L92.1392 84.4546L92.1475 84.4592L92.6332 83.585ZM81.998 72.8414L81.1238 73.3271L81.1298 73.3375L81.998 72.8414ZM81.781 41.5871L80.901 41.1122L80.8982 41.1173L81.781 41.5871ZM120.957 30.735L120.427 31.583L120.436 31.5885L120.445 31.5938L120.957 30.735ZM130.507 41.0445L131.399 40.5915L131.399 40.5915L130.507 41.0445ZM132.786 58.9506L133.455 59.6939L133.475 59.6763L133.493 59.6577L132.786 58.9506ZM126.166 59.9273L125.167 59.9459L125.185 60.9273H126.166V59.9273ZM126.037 52.9819V51.9819H125.018L125.037 53.0005L126.037 52.9819ZM130.833 52.9819L131.663 53.5396L132.709 51.9819H130.833V52.9819ZM123.887 45.0598L124.79 44.6284L124.79 44.6284L123.887 45.0598ZM117.051 37.2463L116.506 38.0848L116.515 38.0908L117.051 37.2463ZM95.7803 37.3548L95.2485 36.5079L95.2485 36.5079L95.7803 37.3548ZM88.5093 45.4939L87.6149 45.0467L87.6111 45.0544L88.5093 45.4939ZM88.8349 68.9346L87.9599 69.4187L87.9638 69.4257L87.9678 69.4327L88.8349 68.9346ZM96.757 76.9652L96.2508 77.8276L96.2508 77.8276L96.757 76.9652ZM116.074 78.593L116.39 79.5417L116.398 79.5392L116.405 79.5365L116.074 78.593ZM122.477 75.1203L121.843 74.3464L121.833 74.3548L121.823 74.3635L122.477 75.1203ZM125.19 74.1437V75.1437H125.225L125.261 75.1411L125.19 74.1437ZM127.794 74.9033L128.472 74.1685L128.446 74.1445L128.419 74.1224L127.794 74.9033ZM129.205 77.7249H128.205V77.7605L128.208 77.7961L129.205 77.7249ZM128.011 80.3294L127.371 79.5611L127.364 79.5669L128.011 80.3294ZM118.895 85.4299L119.228 86.3729L119.236 86.37L119.245 86.367L118.895 85.4299ZM158.425 84.4532L157.847 85.2687L157.853 85.273L157.859 85.2773L158.425 84.4532ZM153.108 77.8334L152.191 78.233L152.195 78.2428L152.2 78.2524L153.108 77.8334ZM152.348 3.27895L151.641 2.57185L151.641 2.57185L152.348 3.27895ZM158.317 3.27895L157.577 3.95163L157.609 3.98686L157.644 4.01889L158.317 3.27895ZM161.355 75.663L160.509 76.1958L160.516 76.2068L160.523 76.2177L161.355 75.663ZM171.556 79.7868L170.782 80.42L170.797 80.4382L170.813 80.4557L171.556 79.7868ZM171.122 85.7555L171.763 86.5237L171.768 86.5189L171.122 85.7555ZM190.572 111.041L191.279 110.334L191.279 110.334L190.572 111.041ZM189.487 56.7802L188.487 56.7674V56.7802H189.487ZM193.502 41.5871L192.64 41.0807L192.638 41.085L193.502 41.5871ZM204.246 30.8435L203.75 29.9752L203.744 29.9787L204.246 30.8435ZM235.066 30.952L234.56 31.8143L234.57 31.8202L235.066 30.952ZM245.81 41.6957L244.942 42.1918L244.948 42.2021L245.81 41.6957ZM245.918 72.6243L245.05 72.1282L245.044 72.1387L245.918 72.6243ZM235.5 83.4765L236.009 84.3378L236.019 84.3315L235.5 83.4765ZM207.285 84.3447L206.812 85.2257L206.821 85.2309L206.831 85.2359L207.285 84.3447ZM197.843 76.097L198.662 75.5224L196.843 72.9325V76.097H197.843ZM196.65 111.041L195.977 110.301L195.942 110.333L195.91 110.368L196.65 111.041ZM230.834 76.8567L230.328 75.9943L230.328 75.9943L230.834 76.8567ZM238.647 68.8261L237.776 68.3358L237.772 68.342L238.647 68.8261ZM238.647 45.6024L237.772 46.0865L237.776 46.0936L237.78 46.1006L238.647 45.6024ZM230.834 37.5718L230.314 38.426L230.321 38.4302L230.328 38.4342L230.834 37.5718ZM208.37 37.5718L208.876 38.4342L208.883 38.4302L208.89 38.426L208.37 37.5718ZM200.556 45.6024L199.681 45.1184L199.681 45.1184L200.556 45.6024ZM200.556 68.8261L199.677 69.3024L199.681 69.3101L200.556 68.8261ZM208.37 76.8567L207.864 77.7191L207.864 77.7191L208.37 76.8567ZM31.198 86.9259C26.6623 86.9259 22.4636 86.2882 18.5949 85.0221L17.9729 86.9229C22.0624 88.2613 26.4732 88.9259 31.198 88.9259V86.9259ZM18.6158 85.0292C14.814 83.6915 11.5231 81.8326 8.7305 79.4589L7.4352 80.9828C10.4305 83.5288 13.9402 85.5043 17.952 86.9158L18.6158 85.0292ZM8.7305 79.4589C5.93975 77.0868 3.82426 74.3427 2.36921 71.2248L0.556843 72.0705C2.1404 75.4639 4.43813 78.4353 7.4352 80.9828L8.7305 79.4589ZM2.35745 71.2004C1.8893 70.2641 1.91646 69.5661 2.23498 68.9746L0.474033 68.0264C-0.220326 69.3159 -0.120811 70.716 0.568599 72.0949L2.35745 71.2004ZM2.22275 68.9967C2.64993 68.2491 3.35191 67.7054 4.44371 67.4021L3.90843 65.4751C2.39571 65.8953 1.21664 66.7262 0.486262 68.0044L2.22275 68.9967ZM4.45079 67.4001C5.20912 67.1835 5.91743 67.2598 6.63206 67.6446L7.58026 65.8837C6.41384 65.2556 5.16876 65.115 3.90135 65.4771L4.45079 67.4001ZM6.65894 67.6586C7.47829 68.0683 8.08102 68.671 8.49069 69.4903L10.2795 68.5959C9.67634 67.3895 8.75977 66.4729 7.55337 65.8697L6.65894 67.6586ZM8.4969 69.5026C9.65528 71.7421 11.3445 73.7296 13.5387 75.4698L14.7815 73.9028C12.7794 72.3149 11.2854 70.5403 10.2733 68.5837L8.4969 69.5026ZM13.5387 75.4698C15.7419 77.2171 18.3471 78.5717 21.339 79.5441L21.9572 77.642C19.1612 76.7333 16.7744 75.4834 14.7815 73.9028L13.5387 75.4698ZM21.3607 79.5509C24.3606 80.4508 27.6422 80.8953 31.198 80.8953V78.8953C27.8084 78.8953 24.7234 78.4716 21.9354 77.6352L21.3607 79.5509ZM31.198 80.8953C35.1389 80.8953 38.6732 80.2632 41.782 78.9742L41.016 77.1267C38.1923 78.2975 34.926 78.8953 31.198 78.8953V80.8953ZM41.801 78.9661C44.9161 77.5985 47.384 75.6427 49.1648 73.0876L47.524 71.944C45.9768 74.1639 43.8145 75.8979 40.997 77.1348L41.801 78.9661ZM49.1614 73.0925C51.0344 70.4391 51.9489 67.2635 51.9489 63.617H49.9489C49.9489 66.916 49.1271 69.6729 47.5275 71.9391L49.1614 73.0925ZM51.9489 63.617C51.9489 58.9253 50.2058 54.872 46.7646 51.5073L45.3663 52.9373C48.4364 55.9391 49.9489 59.4824 49.9489 63.617H51.9489ZM46.7646 51.5073C43.2887 48.1086 37.9403 46.0343 30.8879 45.1528L30.6399 47.1373C37.4782 47.9921 42.3309 49.9693 45.3663 52.9373L46.7646 51.5073ZM30.8827 45.1521C22.5516 44.1552 16.1437 41.6044 11.5645 37.5803L10.2443 39.0826C15.215 43.4509 22.0468 46.1091 30.6451 47.138L30.8827 45.1521ZM11.5709 37.5859C6.99815 33.4982 4.74198 28.5561 4.74198 22.7043H2.74198C2.74198 29.1517 5.26078 34.6277 10.238 39.077L11.5709 37.5859ZM4.74198 22.7043C4.74198 18.476 5.84744 14.8493 8.02963 11.7806L6.39972 10.6215C3.95166 14.0641 2.74198 18.1062 2.74198 22.7043H4.74198ZM8.02108 11.7924C10.2902 8.6981 13.3941 6.30863 17.3697 4.63468L16.5936 2.79141C12.3216 4.59015 8.91407 7.19268 6.40827 10.6097L8.02108 11.7924ZM17.3833 4.62883C21.3589 2.88515 25.9568 2 31.198 2V0C25.7317 0 20.852 0.923549 16.58 2.79725L17.3833 4.62883ZM31.198 2C35.0669 2 38.5561 2.63279 41.6788 3.88186L42.4215 2.02491C39.0329 0.669465 35.2873 0 31.198 0V2ZM41.6968 3.88886C44.8506 5.08031 47.5658 6.68505 49.8547 8.69655L51.175 7.19422C48.689 5.00955 45.761 3.28629 42.4036 2.01791L41.6968 3.88886ZM49.8791 8.71732C52.2628 10.6804 54.1767 12.8418 55.6327 15.1992L57.3343 14.1482C55.7518 11.586 53.6865 9.26189 51.1506 7.17346L49.8791 8.71732ZM55.6355 15.2037C56.2463 16.181 56.3714 17.019 56.1684 17.7803L58.1009 18.2956C58.4767 16.8864 58.1677 15.4816 57.3315 14.1437L55.6355 15.2037ZM56.1541 17.8418C55.9972 18.6265 55.5709 19.2215 54.7937 19.6657L55.786 21.4022C57.0344 20.6887 57.8381 19.6198 58.1153 18.234L56.1541 17.8418ZM54.8669 19.6277C54.0108 20.0272 53.1468 20.0849 52.2239 19.7965L51.6274 21.7054C53.0196 22.1405 54.3984 22.0534 55.7127 21.4401L54.8669 19.6277ZM52.2419 19.8023C51.3951 19.52 50.7573 18.9968 50.2979 18.1929L48.5614 19.1852C49.2596 20.407 50.2857 21.2584 51.6094 21.6996L52.2419 19.8023ZM50.2672 18.1428C49.1263 16.3933 47.6882 14.7691 45.962 13.268L44.6496 14.7772C46.2514 16.17 47.5626 17.6568 48.592 19.2353L50.2672 18.1428ZM45.9963 13.2993C44.2957 11.6759 42.2226 10.4147 39.7968 9.50506L39.0945 11.3777C41.2989 12.2044 43.1327 13.3307 44.6153 14.746L45.9963 13.2993ZM39.7968 9.50506C37.3489 8.58712 34.4462 8.10495 31.1117 8.03086L31.0672 10.0304C34.244 10.101 36.9121 10.5593 39.0945 11.3777L39.7968 9.50506ZM31.0895 8.03061C25.2368 8.03061 20.4201 9.28991 16.7292 11.9043L17.8852 13.5364C21.1397 11.2311 25.5112 10.0306 31.0895 10.0306V8.03061ZM16.7407 11.8963C12.9666 14.491 11.0982 18.3255 11.0982 23.247H13.0982C13.0982 18.9078 14.7024 15.7247 17.8737 13.5444L16.7407 11.8963ZM11.0982 23.247C11.0982 25.8939 11.8018 28.3554 13.2019 30.6112L14.9012 29.5565C13.6968 27.6161 13.0982 25.5196 13.0982 23.247H11.0982ZM13.2104 30.6246C14.6378 32.845 16.9327 34.7212 19.9985 36.2914L20.9102 34.5113C18.0434 33.043 16.0699 31.3742 14.8927 29.5431L13.2104 30.6246ZM20.0244 36.3042C23.1886 37.811 27.3493 38.9158 32.4673 39.647L32.7502 37.6671C27.7396 36.9513 23.7973 35.8857 20.8843 34.4985L20.0244 36.3042ZM32.4662 39.6468C41.3989 40.9331 47.8543 43.6652 51.9841 47.7262L53.3864 46.3002C48.8346 41.8242 41.9056 38.9855 32.7513 37.6672L32.4662 39.6468ZM51.9962 47.7379C56.1867 51.7223 58.3051 56.9465 58.3051 63.5085H60.3051C60.3051 56.4691 58.0103 50.6965 53.3744 46.2885L51.9962 47.7379ZM58.3051 63.5085C58.3051 67.2904 57.6053 70.6123 56.2318 73.4967L58.0375 74.3565C59.558 71.1637 60.3051 67.5402 60.3051 63.5085H58.3051ZM56.2236 73.5144C54.9137 76.4099 53.0215 78.8528 50.5387 80.8529L51.7933 82.4104C54.5195 80.2143 56.6064 77.5205 58.0458 74.3388L56.2236 73.5144ZM50.5413 80.8508C48.1173 82.79 45.2288 84.291 41.8604 85.3436L42.457 87.2526C46.0339 86.1348 49.1503 84.5248 51.7907 82.4125L50.5413 80.8508ZM41.8546 85.3454C38.5614 86.3965 35.0113 86.9259 31.198 86.9259V88.9259C35.1983 88.9259 38.9552 88.3702 42.4627 87.2507L41.8546 85.3454ZM108.26 86.3833C102.549 86.3833 97.5105 85.1507 93.1188 82.7109L92.1475 84.4592C96.8717 87.0837 102.252 88.3833 108.26 88.3833V86.3833ZM93.1353 82.7203C88.804 80.2053 85.3845 76.7521 82.8663 72.3453L81.1298 73.3375C83.8206 78.0465 87.4912 81.7557 92.131 84.4498L93.1353 82.7203ZM82.8722 72.3557C80.4324 67.9641 79.1998 62.9259 79.1998 57.2143H77.1998C77.1998 63.2229 78.4993 68.6029 81.1239 73.327L82.8722 72.3557ZM79.1998 57.2143C79.1998 51.4181 80.3652 46.3754 82.6637 42.057L80.8982 41.1173C78.4218 45.77 77.1998 51.1454 77.1998 57.2143H79.1998ZM82.661 42.0621C85.0399 37.6541 88.2825 34.206 92.3944 31.6971L91.3526 29.9898C86.9274 32.69 83.4417 36.4043 80.901 41.1122L82.661 42.0621ZM92.3944 31.6971C96.4886 29.199 101.224 27.9367 106.632 27.9367V25.9367C100.899 25.9367 95.7955 27.279 91.3526 29.9898L92.3944 31.6971ZM106.632 27.9367C111.972 27.9367 116.558 29.1644 120.427 31.583L121.487 29.887C117.254 27.2412 112.289 25.9367 106.632 25.9367V27.9367ZM120.445 31.5938C124.401 33.9538 127.456 37.2472 129.616 41.4976L131.399 40.5915C129.073 36.0154 125.761 32.4358 121.47 29.8761L120.445 31.5938ZM129.616 41.4976C131.778 45.7519 132.871 50.6212 132.871 56.129H134.871C134.871 50.3506 133.722 45.1636 131.399 40.5915L129.616 41.4976ZM132.871 56.129C132.871 57.0594 132.59 57.7328 132.079 58.2435L133.493 59.6577C134.43 58.7215 134.871 57.5139 134.871 56.129H132.871ZM132.117 58.2073C131.611 58.6629 130.925 58.9273 129.965 58.9273V60.9273C131.32 60.9273 132.514 60.5406 133.455 59.6939L132.117 58.2073ZM129.965 58.9273H126.166V60.9273H129.965V58.9273ZM127.166 59.9087L127.037 52.9633L125.037 53.0005L125.167 59.9459L127.166 59.9087ZM126.037 53.9819H130.833V51.9819H126.037V53.9819ZM130.003 52.4242L125.336 59.3696L126.996 60.485L131.663 53.5396L130.003 52.4242ZM127.166 59.9445C127.203 57.7888 127.027 54.8524 126.642 52.0325C126.26 49.2399 125.656 46.441 124.79 44.6284L122.985 45.4913C123.71 47.0067 124.283 49.5434 124.66 52.3035C125.034 55.0363 125.202 57.8697 125.167 59.9101L127.166 59.9445ZM124.79 44.6284C123.121 41.1399 120.719 38.3885 117.586 36.4018L116.515 38.0908C119.315 39.8661 121.47 42.3237 122.985 45.4913L124.79 44.6284ZM117.596 36.4078C114.513 34.4041 110.843 33.4247 106.632 33.4247V35.4247C110.525 35.4247 113.8 36.3263 116.506 38.0847L117.596 36.4078ZM106.632 33.4247C102.344 33.4247 98.5378 34.4425 95.2485 36.5079L96.3121 38.2017C99.2447 36.3602 102.673 35.4247 106.632 35.4247V33.4247ZM95.2485 36.5079C91.9734 38.5644 89.4284 41.4198 87.6149 45.0467L89.4038 45.9411C91.063 42.6226 93.3653 40.052 96.3121 38.2017L95.2485 36.5079ZM87.6111 45.0544C85.8699 48.6125 85.0133 52.6739 85.0133 57.2143H87.0133C87.0133 52.9282 87.8208 49.176 89.4075 45.9335L87.6111 45.0544ZM85.0133 57.2143C85.0133 61.7735 85.9863 65.851 87.9599 69.4187L89.7099 68.4505C87.9214 65.2175 87.0133 61.4814 87.0133 57.2143H85.0133ZM87.9678 69.4327C90.0063 72.9813 92.7703 75.7848 96.2508 77.8276L97.2632 76.1028C94.0876 74.2389 91.5703 71.6887 89.702 68.4365L87.9678 69.4327ZM96.2508 77.8276C99.7507 79.882 103.764 80.8953 108.26 80.8953V78.8953C104.075 78.8953 100.419 77.9553 97.2632 76.1028L96.2508 77.8276ZM108.26 80.8953C110.978 80.8953 113.689 80.442 116.39 79.5417L115.758 77.6444C113.25 78.4804 110.752 78.8953 108.26 78.8953V80.8953ZM116.405 79.5365C119.162 78.5681 121.417 77.3567 123.13 75.8772L121.823 74.3635C120.353 75.6332 118.34 76.737 115.742 77.6496L116.405 79.5365ZM123.11 75.8943C123.73 75.3869 124.411 75.1437 125.19 75.1437V73.1437C123.942 73.1437 122.815 73.5515 121.843 74.3464L123.11 75.8943ZM125.261 75.1411C126.049 75.0848 126.662 75.2782 127.17 75.6842L128.419 74.1224C127.479 73.3708 126.356 73.0578 125.118 73.1462L125.261 75.1411ZM127.116 75.6381C127.909 76.3702 128.205 77.0609 128.205 77.7249H130.205C130.205 76.3631 129.56 75.1728 128.472 74.1685L127.116 75.6381ZM128.208 77.7961C128.254 78.4481 128.024 79.0168 127.371 79.5612L128.651 81.0976C129.734 80.1951 130.301 79.0273 130.202 77.6536L128.208 77.7961ZM127.364 79.5669C125.085 81.5011 122.154 83.1487 118.546 84.4928L119.245 86.367C123.016 84.9619 126.163 83.2092 128.658 81.0919L127.364 79.5669ZM118.563 84.4869C114.964 85.757 111.532 86.3833 108.26 86.3833V88.3833C111.79 88.3833 115.447 87.7073 119.228 86.3729L118.563 84.4869ZM166.239 85.8407C163.541 85.8407 161.135 85.1026 158.992 83.6292L157.859 85.2773C160.346 86.9871 163.149 87.8407 166.239 87.8407V85.8407ZM159.004 83.6377C156.922 82.1598 155.254 80.0983 154.016 77.4143L152.2 78.2524C153.566 81.2117 155.444 83.5634 157.847 85.2687L159.004 83.6377ZM154.024 77.4338C152.859 74.7608 152.263 71.6455 152.263 68.0664H150.263C150.263 71.8669 150.896 75.2629 152.191 78.233L154.024 77.4338ZM152.263 68.0664V6.20904H150.263V68.0664H152.263ZM152.263 6.20904C152.263 5.18701 152.556 4.48502 153.055 3.98606L151.641 2.57185C150.693 3.51984 150.263 4.77124 150.263 6.20904H152.263ZM153.055 3.98606C153.645 3.3961 154.395 3.08522 155.387 3.08522V1.08522C153.919 1.08522 152.643 1.57016 151.641 2.57185L153.055 3.98606ZM155.387 3.08522C156.379 3.08522 157.071 3.39515 157.577 3.95163L159.057 2.60628C158.116 1.57111 156.854 1.08522 155.387 1.08522V3.08522ZM157.644 4.01889C158.201 4.52478 158.511 5.21625 158.511 6.20904H160.511C160.511 4.742 160.025 3.48008 158.989 2.53901L157.644 4.01889ZM158.511 6.20904V68.0664H160.511V6.20904H158.511ZM158.511 68.0664C158.511 71.3023 159.15 74.0364 160.509 76.1958L162.202 75.1301C161.101 73.3827 160.511 71.0525 160.511 68.0664H158.511ZM160.523 76.2177C161.968 78.3848 163.88 79.593 166.239 79.593V77.593C164.691 77.593 163.347 76.8479 162.187 75.1083L160.523 76.2177ZM166.239 79.593H168.952V77.593H166.239V79.593ZM168.952 79.593C169.756 79.593 170.333 79.8707 170.782 80.42L172.33 79.1535C171.478 78.1112 170.318 77.593 168.952 77.593V79.593ZM170.813 80.4557C171.259 80.951 171.533 81.6665 171.533 82.7169H173.533C173.533 81.3074 173.156 80.0695 172.3 79.1178L170.813 80.4557ZM171.533 82.7169C171.533 83.652 171.193 84.3859 170.476 84.9921L171.768 86.5189C172.933 85.5334 173.533 84.2415 173.533 82.7169H171.533ZM170.482 84.9873C169.839 85.5231 168.93 85.8407 167.65 85.8407V87.8407C169.264 87.8407 170.669 87.4348 171.763 86.5237L170.482 84.9873ZM167.65 85.8407H166.239V87.8407H167.65V85.8407ZM193.719 111.235C192.637 111.235 191.858 110.913 191.279 110.334L189.865 111.748C190.878 112.761 192.197 113.235 193.719 113.235V111.235ZM191.279 110.334C190.791 109.846 190.487 109.115 190.487 108.002H188.487C188.487 109.494 188.907 110.79 189.865 111.748L191.279 110.334ZM190.487 108.002V56.7802H188.487V108.002H190.487ZM190.487 56.793C190.557 51.3063 191.857 46.4132 194.367 42.0893L192.638 41.085C189.939 45.7322 188.562 50.9678 188.487 56.7674L190.487 56.793ZM194.365 42.0936C196.956 37.6811 200.414 34.2246 204.748 31.7083L203.744 29.9787C199.107 32.6714 195.402 36.3773 192.64 41.0807L194.365 42.0936ZM204.742 31.7117C209.138 29.2 214.065 27.9367 219.548 27.9367V25.9367C213.744 25.9367 208.47 27.2779 203.75 29.9752L204.742 31.7117ZM219.548 27.9367C225.175 27.9367 230.17 29.236 234.56 31.8143L235.573 30.0897C230.847 27.3142 225.496 25.9367 219.548 25.9367V27.9367ZM234.57 31.8202C238.973 34.3362 242.426 37.7889 244.942 42.1918L246.678 41.1995C243.985 36.4866 240.275 32.7769 235.562 30.0838L234.57 31.8202ZM244.948 42.2021C247.526 46.5921 248.825 51.5871 248.825 57.2143H250.825C250.825 51.2658 249.448 45.915 246.672 41.1892L244.948 42.2021ZM248.825 57.2143C248.825 62.7716 247.561 67.7346 245.05 72.1282L246.787 73.1205C249.485 68.3982 250.825 63.0879 250.825 57.2143H248.825ZM245.044 72.1387C242.596 76.5463 239.245 80.0357 234.982 82.6215L236.019 84.3315C240.582 81.5636 244.177 77.8182 246.793 73.11L245.044 72.1387ZM234.992 82.6153C230.746 85.1211 225.932 86.3833 220.524 86.3833V88.3833C226.258 88.3833 231.428 87.041 236.009 84.3377L234.992 82.6153ZM220.524 86.3833C215.821 86.3833 211.565 85.4017 207.738 83.4535L206.831 85.2359C210.962 87.3391 215.533 88.3833 220.524 88.3833V86.3833ZM207.758 83.4637C203.979 81.4343 200.954 78.7866 198.662 75.5224L197.025 76.6717C199.508 80.2082 202.777 83.0589 206.812 85.2257L207.758 83.4637ZM196.843 76.097V108.002H198.843V76.097H196.843ZM196.843 108.002C196.843 109.087 196.521 109.807 195.977 110.301L197.322 111.781C198.37 110.829 198.843 109.522 198.843 108.002H196.843ZM195.91 110.368C195.404 110.925 194.712 111.235 193.719 111.235V113.235C195.186 113.235 196.448 112.749 197.389 111.714L195.91 110.368ZM219.548 80.7868C223.906 80.7868 227.845 79.7704 231.34 77.7191L230.328 75.9943C227.166 77.8498 223.582 78.7868 219.548 78.7868V80.7868ZM231.34 77.7191C234.824 75.6743 237.555 72.8662 239.522 69.3101L237.772 68.342C235.978 71.5866 233.5 74.1323 230.328 75.9943L231.34 77.7191ZM239.519 69.3163C241.563 65.6833 242.578 61.6419 242.578 57.2143H240.578C240.578 61.3237 239.639 65.0235 237.776 68.3358L239.519 69.3163ZM242.578 57.2143C242.578 52.7177 241.564 48.672 239.515 45.1043L237.78 46.1006C239.638 49.3335 240.578 53.029 240.578 57.2143H242.578ZM239.522 45.1184C237.555 41.5623 234.824 38.7542 231.34 36.7094L230.328 38.4342C233.5 40.2962 235.978 42.8419 237.772 46.0865L239.522 45.1184ZM231.354 36.7176C227.857 34.5892 223.913 33.5332 219.548 33.5332V35.5332C223.575 35.5332 227.155 36.503 230.314 38.426L231.354 36.7176ZM219.548 33.5332C215.252 33.5332 211.344 34.5909 207.85 36.7176L208.89 38.426C212.052 36.5013 215.596 35.5332 219.548 35.5332V33.5332ZM207.864 36.7094C204.38 38.7542 201.648 41.5623 199.681 45.1184L201.431 46.0865C203.226 42.8419 205.704 40.2962 208.876 38.4342L207.864 36.7094ZM199.681 45.1184C197.709 48.6836 196.735 52.7243 196.735 57.2143H198.735C198.735 53.0225 199.642 49.3219 201.431 46.0865L199.681 45.1184ZM196.735 57.2143C196.735 61.6353 197.71 65.6718 199.677 69.3024L201.436 68.3498C199.64 65.035 198.735 61.3302 198.735 57.2143H196.735ZM199.681 69.3101C201.648 72.8662 204.38 75.6743 207.864 77.7191L208.876 75.9943C205.704 74.1323 203.226 71.5866 201.431 68.342L199.681 69.3101ZM207.864 77.7191C211.356 79.7688 215.258 80.7868 219.548 80.7868V78.7868C215.589 78.7868 212.04 77.8514 208.876 75.9943L207.864 77.7191Z"
    fill="black" mask="url(#path-2-outside-1_10_5)" />
  <path
    d="M254.98 78.3872L255.348 78.7869L255.716 78.3872C256.862 77.142 258.045 77.0457 258.912 77.4604C259.818 77.8934 260.5 78.9356 260.5 80.1977C260.5 82.5485 258.835 83.8958 257.228 85.197C257.066 85.3275 256.906 85.4575 256.747 85.5881C256.449 85.8338 256.188 86.0454 255.938 86.1982C255.687 86.3515 255.498 86.413 255.348 86.413C255.198 86.413 255.009 86.3515 254.758 86.1982C254.508 86.0454 254.247 85.8338 253.949 85.5881C253.79 85.4575 253.63 85.3275 253.468 85.197C251.861 83.8958 250.196 82.5485 250.196 80.1977C250.196 78.9356 250.878 77.8934 251.784 77.4604C252.651 77.0457 253.834 77.142 254.98 78.3872Z"
    fill="#C90000" stroke="black" />
  <rect x="121" y="56.94" width="6" height="3" fill="white" />
  <rect x="85" y="56.94" width="4" height="3" fill="white" />
</svg>