<svg width="1150" height="581" viewBox="0 0 1150 581" fill="none" xmlns="http://www.w3.org/2000/svg">
    <path
        d="M196.528 1.14638C172.996 7.11419 151.298 27.772 144.269 50.8781C136.171 78.2688 142.588 104.588 162.453 124.481C172.691 134.734 182.929 140.701 196.528 144.221C233.812 154.014 275.375 130.449 285.002 93.877C288.21 82.0944 287.752 62.9668 284.085 51.0312C277.82 30.8324 259.942 11.7048 240.23 4.2068C230.145 0.381278 206.46 -1.30195 196.528 1.14638ZM229.381 48.4298C238.855 54.3976 242.828 60.6715 243.897 70.7708C244.967 80.5642 242.828 86.991 236.104 94.336C229.992 101.069 223.422 103.67 213.184 103.67C197.292 103.67 183.998 90.2045 183.998 73.8312C183.998 63.4258 188.582 55.1627 197.598 48.8889C207.683 42.156 219.143 42.0029 229.381 48.4298Z"
        fill="url(#paint0_linear_146_11)" />
    <path
        d="M82.692 135.805C42.0462 144.986 12.4023 174.366 2.77565 214.764C0.0251819 226.393 -0.433229 231.29 0.330789 249.04C0.7892 260.364 2.16443 273.371 3.53967 277.808C6.59574 288.979 14.9999 306.576 22.9457 318.206C26.7658 323.868 64.6612 363.653 115.239 414.762C162.303 462.657 202.337 504.279 204.171 507.34C209.977 516.827 207.991 526.161 198.517 534.271C192.099 539.474 178.653 539.933 169.026 535.036C165.359 533.2 150.995 520.193 135.562 504.891C120.74 490.048 107.446 477.347 105.918 476.582C104.543 475.817 99.9588 475.511 95.6803 475.97C89.2626 476.582 87.1233 477.5 82.9976 482.091C76.7326 488.977 75.2046 496.322 78.4135 503.361C82.3864 511.777 139.688 567.63 149.162 572.526C171.777 583.85 200.198 583.85 219.757 572.373C241.455 559.673 251.846 539.168 250.165 512.389C249.248 499.076 246.498 490.201 240.233 481.173C237.941 477.654 203.713 442.153 164.136 402.367C124.713 362.429 92.1658 329.223 91.8602 328.458C91.5546 327.693 100.112 327.081 112.183 327.081C136.326 327.081 136.632 326.928 145.036 310.249C147.634 305.046 150.078 301.068 150.384 301.374C150.69 301.68 160.622 320.807 172.388 343.913C184.001 367.019 196.225 388.901 199.281 392.421C204.018 398.083 205.699 399.001 210.894 399.001C223.73 399.001 224.799 397.777 248.942 354.931C257.499 339.629 265.14 327.234 265.598 327.54C275.683 333.202 279.35 333.814 298.298 333.967H318.01L322.441 328.917C327.484 323.256 328.248 315.911 324.58 308.872C321.983 303.516 319.691 302.598 310.217 302.598C296.77 302.598 288.824 299.078 279.35 288.826C271.71 280.563 270.335 279.645 264.834 279.645C254.138 279.645 250.929 283.011 233.815 313.003C225.105 328.305 217.159 341.924 216.09 343.301C214.409 345.597 212.27 342.077 200.045 317.747C163.678 245.674 163.678 245.521 153.135 243.532C147.022 242.308 138.771 245.062 134.798 249.5C132.964 251.336 127.311 261.435 121.963 271.994C116.767 282.552 111.725 291.58 111.113 292.039C110.349 292.498 98.278 292.651 84.22 292.345C58.8546 291.58 58.7018 291.58 55.3401 287.602C53.3537 285.306 49.992 279.033 47.6999 273.524C43.727 264.343 41.2882 262.659 41.2882 243.532C41.2882 217.212 46.5955 206.835 60.8062 192.451C76.8506 175.925 97.6668 171.306 120.893 175.284C141.827 178.957 155.121 187.373 184.154 215.682C200.351 231.443 208.297 236.799 215.631 236.799C222.507 236.799 232.44 230.066 251.082 212.468C279.962 185.231 293.256 177.58 314.954 175.897C343.07 173.907 369.505 187.679 381.118 210.785C395.634 239.553 388.758 274.289 358.35 326.01C342.153 353.707 331.609 366.407 293.103 405.887C276.6 422.719 262.236 438.021 261.32 439.857C258.722 444.907 259.333 454.394 262.542 459.138C268.96 468.931 278.739 471.533 289.588 466.33C306.397 458.067 371.949 385.229 397.62 346.209C420.847 310.708 431.084 280.41 430.932 246.286C430.932 214.458 420.388 187.067 400.065 165.644C373.936 138.253 335.735 127.542 295.548 136.417C271.863 141.62 253.832 152.331 231.676 173.907L215.173 189.974L212.575 186.149C204.018 173.754 182.626 156.157 165.817 147.741C138.16 133.816 109.891 129.684 82.692 135.805Z"
        fill="url(#paint1_linear_146_11)" />
    <path
        d="M550.997 417.092C533.475 417.092 516.682 414.794 500.62 410.198C484.557 405.393 471.624 399.231 461.82 391.711L479.029 353.482C488.417 360.167 499.472 365.703 512.197 370.09C525.131 374.268 538.168 376.356 551.31 376.356C561.323 376.356 569.354 375.416 575.404 373.536C581.662 371.447 586.251 368.627 589.172 365.076C592.092 361.525 593.552 357.451 593.552 352.855C593.552 347.006 591.258 342.41 586.668 339.068C582.079 335.517 576.03 332.697 568.52 330.608C561.01 328.31 552.666 326.221 543.488 324.341C534.518 322.252 525.443 319.745 516.265 316.82C507.295 313.896 499.055 310.136 491.546 305.54C484.036 300.944 477.882 294.886 473.084 287.366C468.495 279.845 466.2 270.236 466.2 258.538C466.2 246.004 469.538 234.619 476.213 224.383C483.097 213.938 493.319 205.686 506.878 199.628C520.646 193.361 537.855 190.228 558.507 190.228C572.275 190.228 585.834 191.899 599.184 195.241C612.535 198.375 624.321 203.179 634.543 209.655L618.897 248.197C608.676 242.348 598.454 238.065 588.233 235.35C578.011 232.425 567.998 230.963 558.194 230.963C548.39 230.963 540.359 232.112 534.1 234.41C527.842 236.708 523.358 239.737 520.646 243.497C517.934 247.048 516.578 251.226 516.578 256.031C516.578 261.671 518.873 266.267 523.462 269.818C528.051 273.16 534.1 275.876 541.61 277.965C549.12 280.054 557.36 282.143 566.33 284.232C575.508 286.321 584.582 288.723 593.552 291.439C602.731 294.155 611.075 297.811 618.584 302.406C626.094 307.002 632.144 313.06 636.733 320.58C641.531 328.101 643.93 337.606 643.93 349.095C643.93 361.42 640.488 372.701 633.604 382.937C626.72 393.173 616.394 401.424 602.626 407.691C589.067 413.958 571.858 417.092 550.997 417.092Z"
        fill="url(#paint2_linear_146_11)" />
    <path
        d="M758.67 415.838C739.479 415.838 722.582 412.078 707.98 404.558C693.586 397.037 682.426 386.801 674.499 373.85C666.572 360.689 662.609 345.753 662.609 329.041C662.609 312.12 666.468 297.184 674.186 284.232C682.113 271.071 692.856 260.835 706.415 253.524C719.974 246.004 735.307 242.243 752.412 242.243C768.892 242.243 783.702 245.795 796.844 252.897C810.195 259.791 820.729 269.818 828.448 282.979C836.166 295.93 840.025 311.493 840.025 329.668C840.025 331.548 839.921 333.741 839.712 336.248C839.503 338.546 839.295 340.739 839.086 342.828H702.347V314.314H813.428L794.654 322.774C794.654 314 792.881 306.375 789.334 299.9C785.788 293.424 780.886 288.41 774.628 284.859C768.37 281.099 761.069 279.218 752.725 279.218C744.381 279.218 736.975 281.099 730.509 284.859C724.251 288.41 719.348 293.528 715.802 300.213C712.256 306.689 710.483 314.418 710.483 323.401V330.921C710.483 340.113 712.465 348.26 716.428 355.362C720.6 362.256 726.337 367.583 733.638 371.343C741.147 374.894 749.909 376.67 759.922 376.67C768.891 376.67 776.714 375.312 783.389 372.596C790.273 369.881 796.531 365.807 802.164 360.376L828.135 388.577C820.416 397.351 810.716 404.14 799.035 408.945C787.353 413.54 773.898 415.838 758.67 415.838Z"
        fill="url(#paint3_linear_146_11)" />
    <path d="M872.523 413.332V180.827H921.336V413.332H872.523Z" fill="url(#paint4_linear_146_11)" />
    <path
        d="M1066.14 415.838C1051.96 415.838 1039.55 412.705 1028.91 406.438C1018.27 400.171 1009.92 390.666 1003.87 377.923C998.033 364.971 995.113 348.677 995.113 329.041C995.113 309.196 997.929 292.901 1003.56 280.159C1009.19 267.416 1017.33 257.911 1027.97 251.644C1038.61 245.377 1051.33 242.243 1066.14 242.243C1082 242.243 1096.18 245.899 1108.7 253.211C1121.42 260.313 1131.43 270.34 1138.74 283.292C1146.25 296.244 1150 311.493 1150 329.041C1150 346.797 1146.25 362.151 1138.74 375.103C1131.43 388.055 1121.42 398.082 1108.7 405.185C1096.18 412.287 1082 415.838 1066.14 415.838ZM966.638 474.121V244.75H1013.26V279.218L1012.32 329.354L1015.45 379.177V474.121H966.638ZM1057.69 375.73C1065.83 375.73 1073.03 373.85 1079.28 370.09C1085.75 366.329 1090.86 361.002 1094.62 354.109C1098.58 347.006 1100.56 338.65 1100.56 329.041C1100.56 319.223 1098.58 310.867 1094.62 303.973C1090.86 297.079 1085.75 291.752 1079.28 287.992C1073.03 284.232 1065.83 282.352 1057.69 282.352C1049.56 282.352 1042.26 284.232 1035.79 287.992C1029.32 291.752 1024.21 297.079 1020.46 303.973C1016.7 310.867 1014.83 319.223 1014.83 329.041C1014.83 338.65 1016.7 347.006 1020.46 354.109C1024.21 361.002 1029.32 366.329 1035.79 370.09C1042.26 373.85 1049.56 375.73 1057.69 375.73Z"
        fill="url(#paint5_linear_146_11)" />
    <defs>
        <linearGradient id="paint0_linear_146_11" x1="575" y1="0" x2="575" y2="581"
            gradientUnits="userSpaceOnUse">
            <stop stop-color="#00CDFF" />
            <stop offset="1" stop-color="#262654" />
        </linearGradient>
        <linearGradient id="paint1_linear_146_11" x1="575" y1="0" x2="575" y2="581"
            gradientUnits="userSpaceOnUse">
            <stop stop-color="#00CDFF" />
            <stop offset="1" stop-color="#262654" />
        </linearGradient>
        <linearGradient id="paint2_linear_146_11" x1="575" y1="0" x2="575" y2="581"
            gradientUnits="userSpaceOnUse">
            <stop stop-color="#00CDFF" />
            <stop offset="1" stop-color="#262654" />
        </linearGradient>
        <linearGradient id="paint3_linear_146_11" x1="575" y1="0" x2="575" y2="581"
            gradientUnits="userSpaceOnUse">
            <stop stop-color="#00CDFF" />
            <stop offset="1" stop-color="#262654" />
        </linearGradient>
        <linearGradient id="paint4_linear_146_11" x1="575" y1="0" x2="575" y2="581"
            gradientUnits="userSpaceOnUse">
            <stop stop-color="#00CDFF" />
            <stop offset="1" stop-color="#262654" />
        </linearGradient>
        <linearGradient id="paint5_linear_146_11" x1="575" y1="0" x2="575" y2="581"
            gradientUnits="userSpaceOnUse">
            <stop stop-color="#00CDFF" />
            <stop offset="1" stop-color="#262654" />
        </linearGradient>
    </defs>
</svg>
    