<svg width="933" height="471" viewBox="0 0 933 471" fill="none" xmlns="http://www.w3.org/2000/svg">
<path d="M159.444 0.929338C140.353 5.76727 122.749 22.514 117.046 41.2454C110.476 63.4503 115.683 84.7868 131.799 100.913C140.105 109.225 148.411 114.063 159.444 116.916C189.693 124.855 223.413 105.751 231.223 76.1034C233.826 66.5515 233.454 51.0454 230.479 41.3695C225.396 24.9949 210.892 9.48876 194.9 3.41033C186.718 0.309091 167.502 -1.05545 159.444 0.929338ZM186.098 39.2606C193.784 44.0986 197.007 49.1846 197.875 57.3719C198.743 65.3111 197.007 70.5211 191.552 76.4755C186.594 81.9337 181.263 84.0425 172.957 84.0425C160.064 84.0425 149.279 73.1262 149.279 59.8529C149.279 51.4175 152.998 44.7188 160.312 39.6328C168.494 34.1746 177.792 34.0506 186.098 39.2606Z" fill="#186B52"/>
<path d="M67.0884 110.093C34.1123 117.536 10.062 141.354 2.2519 174.103C0.0204301 183.531 -0.351481 187.5 0.268371 201.89C0.640282 211.07 1.75601 221.614 2.87175 225.211C5.35115 234.267 12.1695 248.533 18.616 257.96C21.7152 262.55 52.4599 294.803 93.4941 336.236C131.677 375.063 164.157 408.805 165.645 411.286C170.356 418.977 168.744 426.544 161.058 433.118C155.851 437.336 144.942 437.708 137.132 433.739C134.156 432.25 122.503 421.706 109.982 409.301C97.957 397.268 87.1716 386.972 85.9319 386.352C84.8161 385.731 81.097 385.483 77.6259 385.855C72.4191 386.352 70.6835 387.096 67.3363 390.817C62.2535 396.4 61.0138 402.354 63.6172 408.06C66.8404 414.883 113.329 460.161 121.015 464.131C139.363 473.31 162.422 473.31 178.29 464.007C195.894 453.711 204.324 437.088 202.96 415.379C202.216 404.587 199.985 397.392 194.902 390.073C193.042 387.22 165.273 358.44 133.165 326.188C101.18 293.811 74.7745 266.892 74.5266 266.272C74.2787 265.651 81.221 265.155 91.0146 265.155C110.602 265.155 110.85 265.031 117.668 251.51C119.776 247.292 121.759 244.067 122.007 244.315C122.255 244.563 130.313 260.069 139.859 278.801C149.281 297.532 159.198 315.271 161.678 318.124C165.521 322.714 166.885 323.458 171.1 323.458C181.513 323.458 182.381 322.466 201.968 287.732C208.91 275.327 215.109 265.279 215.481 265.527C223.663 270.117 226.638 270.613 242.011 270.737H258.003L261.598 266.644C265.689 262.054 266.309 256.1 263.333 250.393C261.226 246.052 259.366 245.307 251.68 245.307C240.771 245.307 234.324 242.454 226.638 234.143C220.44 227.444 219.324 226.7 214.861 226.7C206.183 226.7 203.58 229.429 189.695 253.743C182.629 266.148 176.182 277.188 175.314 278.305C173.951 280.165 172.215 277.312 162.298 257.588C132.793 199.161 132.793 199.037 124.239 197.424C119.28 196.432 112.585 198.665 109.362 202.262C107.875 203.751 103.288 211.938 98.9488 220.497C94.7338 229.057 90.6427 236.376 90.1469 236.748C89.527 237.12 79.7334 237.244 68.3281 236.996C47.749 236.376 47.625 236.376 44.8977 233.15C43.2861 231.29 40.5587 226.204 38.6992 221.738C35.4759 214.295 33.4973 212.93 33.4973 197.424C33.4973 176.088 37.8031 167.675 49.3323 156.015C62.3492 142.617 79.2375 138.873 98.081 142.098C115.065 145.075 125.85 151.898 149.405 174.847C162.546 187.624 168.992 191.966 174.943 191.966C180.521 191.966 188.579 186.508 203.704 172.242C227.134 150.161 237.919 143.959 255.523 142.594C278.334 140.982 299.781 152.146 309.202 170.878C320.98 194.199 315.401 222.358 290.731 264.287C277.59 286.74 269.036 297.036 237.796 329.041C224.407 342.686 212.754 355.091 212.01 356.58C209.902 360.673 210.398 368.364 213.001 372.21C218.208 380.149 226.142 382.258 234.944 378.04C248.581 371.342 301.764 312.294 322.591 280.661C341.435 251.882 349.741 227.32 349.617 199.657C349.617 173.855 341.063 151.65 324.575 134.283C303.376 112.078 272.383 103.395 239.779 110.589C220.564 114.807 205.935 123.491 187.959 140.982L174.571 154.007L172.463 150.906C165.521 140.858 148.165 126.592 134.528 119.769C112.09 108.481 89.1551 105.131 67.0884 110.093Z" fill="#186B52"/>
<path d="M447.027 338.124C432.81 338.124 419.186 336.261 406.155 332.536C393.124 328.641 382.631 323.645 374.676 317.548L388.639 286.558C396.254 291.977 405.224 296.465 415.548 300.021C426.041 303.408 436.618 305.101 447.28 305.101C455.404 305.101 461.92 304.339 466.828 302.815C471.905 301.122 475.628 298.836 477.997 295.957C480.367 293.078 481.551 289.775 481.551 286.05C481.551 281.308 479.69 277.582 475.967 274.873C472.243 271.994 467.335 269.708 461.243 268.014C455.15 266.151 448.38 264.458 440.934 262.934C433.656 261.24 426.295 259.208 418.848 256.837C411.571 254.466 404.886 251.418 398.793 247.692C392.7 243.967 387.708 239.056 383.815 232.959C380.092 226.862 378.23 219.072 378.23 209.589C378.23 199.428 380.938 190.199 386.354 181.9C391.939 173.433 400.232 166.744 411.232 161.833C422.402 156.752 436.364 154.212 453.119 154.212C464.289 154.212 475.29 155.567 486.121 158.276C496.952 160.817 506.514 164.712 514.807 169.961L502.114 201.206C493.821 196.464 485.529 192.993 477.236 190.791C468.943 188.42 460.82 187.235 452.865 187.235C444.911 187.235 438.395 188.166 433.318 190.029C428.241 191.892 424.602 194.348 422.402 197.396C420.202 200.275 419.102 203.662 419.102 207.557C419.102 212.129 420.964 215.855 424.687 218.734C428.41 221.443 433.318 223.645 439.411 225.338C445.503 227.032 452.188 228.725 459.466 230.419C466.912 232.112 474.274 234.06 481.551 236.261C488.998 238.463 495.768 241.426 501.86 245.152C507.953 248.878 512.861 253.789 516.584 259.885C520.477 265.982 522.423 273.687 522.423 283.001C522.423 292.993 519.63 302.138 514.046 310.436C508.461 318.734 500.083 325.423 488.913 330.504C477.913 335.584 463.951 338.124 447.027 338.124Z" fill="#186B52"/>
<path d="M615.512 337.108C599.942 337.108 586.234 334.06 574.387 327.963C562.709 321.867 553.655 313.569 547.224 303.069C540.793 292.4 537.577 280.292 537.577 266.744C537.577 253.027 540.708 240.918 546.97 230.419C553.401 219.75 562.117 211.452 573.118 205.525C584.118 199.428 596.557 196.38 610.435 196.38C623.805 196.38 635.821 199.259 646.483 205.017C657.315 210.605 665.861 218.734 672.123 229.403C678.385 239.902 681.516 252.519 681.516 267.252C681.516 268.776 681.431 270.554 681.262 272.587C681.093 274.449 680.924 276.228 680.754 277.921H569.817V254.805H659.938L644.706 261.664C644.706 254.551 643.268 248.37 640.391 243.12C637.513 237.87 633.536 233.806 628.459 230.927C623.382 227.879 617.459 226.354 610.689 226.354C603.919 226.354 597.911 227.879 592.665 230.927C587.588 233.806 583.611 237.955 580.733 243.374C577.856 248.624 576.418 254.89 576.418 262.172V268.268C576.418 275.719 578.026 282.324 581.241 288.082C584.626 293.67 589.28 297.989 595.203 301.037C601.296 303.916 608.404 305.355 616.528 305.355C623.805 305.355 630.151 304.255 635.567 302.053C641.152 299.852 646.229 296.549 650.799 292.146L671.869 315.008C665.607 322.121 657.738 327.625 648.26 331.52C638.783 335.245 627.867 337.108 615.512 337.108Z" fill="#186B52"/>
<path d="M707.882 335.076V146.591H747.484V335.076H707.882Z" fill="#186B52"/>
<path d="M864.966 337.108C853.457 337.108 843.387 334.568 834.756 329.488C826.125 324.407 819.355 316.702 814.447 306.371C809.709 295.872 807.339 282.663 807.339 266.744C807.339 250.656 809.624 237.447 814.193 227.116C818.763 216.786 825.363 209.081 833.995 204C842.626 198.92 852.949 196.38 864.966 196.38C877.828 196.38 889.336 199.343 899.49 205.271C909.814 211.028 917.938 219.157 923.861 229.657C929.954 240.156 933 252.519 933 266.744C933 281.139 929.954 293.586 923.861 304.085C917.938 314.585 909.814 322.714 899.49 328.471C889.336 334.229 877.828 337.108 864.966 337.108ZM784.238 384.356V198.412H822.063V226.354L821.302 266.998L823.84 307.388V384.356H784.238ZM858.111 304.593C864.712 304.593 870.55 303.069 875.628 300.021C880.874 296.973 885.02 292.654 888.067 287.066C891.282 281.308 892.89 274.534 892.89 266.744C892.89 258.785 891.282 252.011 888.067 246.422C885.02 240.834 880.874 236.515 875.628 233.467C870.55 230.419 864.712 228.895 858.111 228.895C851.511 228.895 845.587 230.419 840.341 233.467C835.095 236.515 830.948 240.834 827.902 246.422C824.856 252.011 823.332 258.785 823.332 266.744C823.332 274.534 824.856 281.308 827.902 287.066C830.948 292.654 835.095 296.973 840.341 300.021C845.587 303.069 851.511 304.593 858.111 304.593Z" fill="#186B52"/>
</svg>

