<svg width="133" height="178" viewBox="0 0 133 178" fill="none" xmlns="http://www.w3.org/2000/svg">
<path d="M60.2956 0.351215C53.0759 2.17956 46.4189 8.50846 44.2624 15.5874C41.7777 23.9791 43.7467 32.0426 49.8412 38.1371C52.9822 41.2781 56.1232 43.1064 60.2956 44.1847C71.7345 47.1851 84.486 39.9654 87.4395 28.7609C88.424 25.1511 88.2834 19.291 87.1582 15.6343C85.2361 9.44607 79.7511 3.58598 73.7035 1.28883C70.6093 0.116811 63.3428 -0.398877 60.2956 0.351215ZM70.3749 14.8374C73.2815 16.6657 74.5004 18.5878 74.8286 21.6819C75.1568 24.6823 74.5004 26.6513 72.4377 28.9016C70.5625 30.9643 68.5466 31.7613 65.4056 31.7613C60.53 31.7613 56.4514 27.6358 56.4514 22.6196C56.4514 19.4317 57.8578 16.9001 60.6237 14.978C63.7179 12.9152 67.2339 12.8684 70.3749 14.8374Z" fill="#186B52"/>
<path d="M25.3702 41.6064C12.8999 44.4192 3.80507 53.4203 0.851579 65.7968C0.00772589 69.3598 -0.132916 70.8599 0.101487 76.2981C0.24213 79.7673 0.664056 83.7521 1.08598 85.1117C2.0236 88.534 4.60204 93.9253 7.03984 97.4882C8.21186 99.2228 19.8383 111.412 35.3558 127.07C49.7951 141.744 62.0778 154.495 62.6404 155.433C64.4219 158.339 63.8124 161.199 60.9058 163.684C58.9368 165.278 54.8113 165.418 51.8578 163.918C50.7327 163.356 46.3259 159.371 41.5909 154.683C37.0435 150.135 32.9649 146.244 32.4961 146.01C32.0742 145.775 30.6677 145.682 29.3551 145.822C27.3861 146.01 26.7297 146.291 25.464 147.697C23.5419 149.807 23.0731 152.057 24.0575 154.214C25.2764 156.792 42.8567 173.904 45.7633 175.404C52.7017 178.873 61.4215 178.873 67.4222 175.357C74.0793 171.466 77.2672 165.184 76.7515 156.98C76.4702 152.901 75.6264 150.182 73.7043 147.416C73.0011 146.338 62.4998 135.462 50.3577 123.273C38.2624 111.037 28.2768 100.864 28.1831 100.629C28.0893 100.395 30.7146 100.207 34.4182 100.207C41.8254 100.207 41.9191 100.16 44.4976 95.0504C45.2945 93.4565 46.0446 92.2376 46.1384 92.3313C46.2321 92.4251 49.2794 98.2852 52.8892 105.364C56.4521 112.443 60.2026 119.147 61.1402 120.225C62.5935 121.96 63.1092 122.241 64.7032 122.241C68.6411 122.241 68.9693 121.866 76.3765 108.74C79.0018 104.051 81.3458 100.254 81.4865 100.348C84.5806 102.083 85.7057 102.27 91.519 102.317H97.5666L98.9261 100.77C100.473 99.0353 100.708 96.785 99.5824 94.6285C98.7855 92.9877 98.0823 92.7064 95.1756 92.7064C91.0501 92.7064 88.6123 91.6281 85.7057 88.4871C83.3617 85.9555 82.9398 85.6743 81.2521 85.6743C77.9704 85.6743 76.9859 86.7056 71.7353 95.8943C69.0631 100.582 66.6253 104.755 66.2971 105.177C65.7814 105.88 65.1251 104.802 61.3746 97.3476C50.217 75.2667 50.217 75.2199 46.9822 74.6104C45.107 74.2354 42.5754 75.0792 41.3565 76.4388C40.794 77.0013 39.0594 80.0955 37.4186 83.3302C35.8246 86.565 34.2776 89.331 34.09 89.4716C33.8556 89.6122 30.152 89.6591 25.839 89.5654C18.0568 89.331 18.0099 89.331 16.9786 88.1121C16.3691 87.4089 15.3377 85.4867 14.6345 83.799C13.4156 80.9862 12.6674 80.4705 12.6674 74.6104C12.6674 66.5469 14.2957 63.3677 18.6556 58.9609C23.578 53.8978 29.9645 52.4827 37.0904 53.7016C43.5131 54.8267 47.5917 57.4052 56.499 66.0781C61.4684 70.9068 63.9062 72.5477 66.1565 72.5477C68.2661 72.5477 71.3133 70.4849 77.0328 65.0936C85.8932 56.7488 89.9719 54.4048 96.629 53.8891C105.255 53.2797 113.365 57.4989 116.928 64.5779C121.382 73.3915 119.272 84.0334 109.943 99.8791C104.974 108.365 101.739 112.256 89.925 124.351C84.8619 129.508 80.4551 134.196 80.1738 134.758C79.3768 136.305 79.5644 139.212 80.5489 140.665C82.5178 143.666 85.5182 144.463 88.8467 142.869C94.0036 140.337 114.115 118.022 121.991 106.067C129.117 95.191 132.258 85.9087 132.211 75.4543C132.211 65.7031 128.977 57.3114 122.742 50.7481C114.725 42.3565 103.005 39.0748 90.6751 41.7939C83.4086 43.3878 77.8766 46.6695 71.0789 53.2797L66.0158 58.2022L65.2188 57.0301C62.5935 53.2328 56.0302 47.8415 50.8733 45.2631C42.3879 40.9969 33.715 39.7312 25.3702 41.6064Z" fill="#186B52"/>
</svg>

